<svg xmlns="http://www.w3.org/2000/svg" xmlns:xlink="http://www.w3.org/1999/xlink" width="48" zoomAndPan="magnify" viewBox="0 0 36 36.000001" height="48" preserveAspectRatio="xMidYMid meet" version="1.2"><defs><clipPath id="cd2fe80e90"><path d="M 7.179688 7.152344 L 29.074219 7.152344 L 29.074219 27.585938 L 7.179688 27.585938 Z M 7.179688 7.152344 "/></clipPath><clipPath id="45f7fa0275"><path d="M 7.179688 7.152344 L 28 7.152344 L 28 27 L 7.179688 27 Z M 7.179688 7.152344 "/></clipPath></defs><g id="110cdfcf8a"><g clip-rule="nonzero" clip-path="url(#cd2fe80e90)"><path style=" stroke:none;fill-rule:nonzero;fill:#1a1a1a;fill-opacity:1;" d="M 27.992188 12.109375 C 27.914062 11.207031 27.757812 10.28125 27.148438 9.59375 C 27.101562 9.539062 27.050781 9.488281 27 9.441406 C 26.988281 9.429688 26.980469 9.421875 26.96875 9.410156 C 26.960938 9.402344 26.949219 9.390625 26.941406 9.382812 C 26.929688 9.371094 26.921875 9.363281 26.910156 9.351562 C 26.898438 9.34375 26.890625 9.332031 26.878906 9.324219 C 26.871094 9.3125 26.859375 9.304688 26.851562 9.292969 C 26.839844 9.285156 26.828125 9.273438 26.820312 9.265625 C 26.808594 9.253906 26.800781 9.246094 26.789062 9.234375 C 26.78125 9.226562 26.769531 9.214844 26.757812 9.207031 C 26.75 9.195312 26.738281 9.1875 26.730469 9.175781 C 26.71875 9.167969 26.710938 9.15625 26.699219 9.148438 C 26.691406 9.136719 26.679688 9.128906 26.667969 9.117188 C 26.660156 9.109375 26.648438 9.097656 26.640625 9.089844 C 26.628906 9.078125 26.621094 9.070312 26.609375 9.058594 C 26.597656 9.050781 26.589844 9.039062 26.578125 9.03125 C 26.570312 9.019531 26.558594 9.011719 26.550781 9 C 26.539062 8.992188 26.527344 8.980469 26.519531 8.972656 C 26.507812 8.960938 26.5 8.953125 26.488281 8.941406 C 26.480469 8.933594 26.46875 8.921875 26.457031 8.914062 C 26.449219 8.902344 26.4375 8.894531 26.429688 8.882812 C 26.417969 8.875 26.410156 8.863281 26.398438 8.855469 C 26.390625 8.84375 26.378906 8.835938 26.367188 8.824219 C 26.359375 8.816406 26.347656 8.804688 26.339844 8.796875 C 26.328125 8.785156 26.320312 8.777344 26.308594 8.765625 C 26.296875 8.757812 26.289062 8.746094 26.277344 8.738281 C 26.269531 8.726562 26.257812 8.71875 26.25 8.707031 C 26.238281 8.699219 26.230469 8.6875 26.21875 8.679688 C 26.207031 8.667969 26.199219 8.660156 26.1875 8.648438 C 26.179688 8.640625 26.167969 8.628906 26.160156 8.621094 C 26.148438 8.609375 26.136719 8.601562 26.128906 8.589844 C 25.410156 7.886719 24.472656 7.792969 23.722656 7.792969 C 23.636719 7.792969 23.550781 7.792969 23.460938 7.796875 L 22.484375 7.820312 C 21.65625 7.84375 20.699219 7.953125 19.890625 8.601562 C 19.210938 9.152344 18.828125 9.90625 18.46875 10.878906 L 18.417969 11.011719 C 18.152344 10.246094 17.839844 9.617188 17.328125 9.128906 C 17.320312 9.117188 17.308594 9.109375 17.300781 9.097656 C 17.289062 9.089844 17.28125 9.078125 17.269531 9.070312 C 17.257812 9.058594 17.25 9.050781 17.238281 9.039062 C 17.230469 9.03125 17.21875 9.019531 17.210938 9.011719 C 17.199219 9 17.191406 8.992188 17.179688 8.980469 C 17.167969 8.972656 17.160156 8.960938 17.148438 8.953125 C 17.140625 8.941406 17.128906 8.933594 17.121094 8.921875 C 17.109375 8.914062 17.097656 8.902344 17.089844 8.894531 C 17.078125 8.882812 17.070312 8.875 17.058594 8.863281 C 17.050781 8.855469 17.039062 8.84375 17.027344 8.835938 C 17.019531 8.824219 17.007812 8.816406 17 8.804688 C 16.988281 8.796875 16.980469 8.785156 16.96875 8.777344 C 16.960938 8.765625 16.949219 8.757812 16.9375 8.746094 C 16.929688 8.738281 16.917969 8.726562 16.910156 8.71875 C 16.898438 8.707031 16.890625 8.699219 16.878906 8.6875 C 16.867188 8.679688 16.859375 8.667969 16.847656 8.660156 C 16.839844 8.648438 16.828125 8.640625 16.820312 8.628906 C 16.808594 8.621094 16.800781 8.609375 16.789062 8.601562 C 16.777344 8.589844 16.769531 8.582031 16.757812 8.570312 C 16.75 8.5625 16.738281 8.550781 16.730469 8.542969 C 16.71875 8.53125 16.707031 8.523438 16.699219 8.511719 C 16.6875 8.503906 16.679688 8.492188 16.667969 8.484375 C 16.660156 8.472656 16.648438 8.464844 16.636719 8.453125 C 16.628906 8.445312 16.617188 8.433594 16.609375 8.425781 C 16.597656 8.414062 16.589844 8.40625 16.578125 8.394531 C 16.566406 8.386719 16.558594 8.375 16.546875 8.367188 C 16.539062 8.355469 16.527344 8.347656 16.519531 8.335938 C 16.507812 8.328125 16.5 8.316406 16.488281 8.308594 C 16.476562 8.296875 16.46875 8.289062 16.457031 8.277344 C 16.414062 8.234375 16.371094 8.195312 16.328125 8.15625 C 15.546875 7.464844 14.59375 7.3125 13.765625 7.253906 L 12.886719 7.1875 C 12.679688 7.175781 12.492188 7.167969 12.320312 7.167969 C 11.933594 7.167969 10.75 7.167969 9.9375 8.101562 C 9.382812 8.742188 9.191406 9.59375 9.0625 10.417969 L 7.386719 21.921875 C 7.242188 22.871094 7.179688 23.863281 7.699219 24.695312 C 7.816406 24.878906 7.945312 25.035156 8.085938 25.171875 C 8.097656 25.183594 8.105469 25.191406 8.117188 25.203125 C 8.125 25.210938 8.136719 25.222656 8.148438 25.230469 C 8.15625 25.242188 8.167969 25.25 8.175781 25.261719 C 8.1875 25.269531 8.195312 25.28125 8.207031 25.289062 C 8.21875 25.300781 8.226562 25.308594 8.238281 25.320312 C 8.246094 25.328125 8.257812 25.339844 8.265625 25.347656 C 8.277344 25.359375 8.289062 25.367188 8.296875 25.378906 C 8.308594 25.386719 8.316406 25.398438 8.328125 25.40625 C 8.335938 25.417969 8.347656 25.425781 8.359375 25.433594 C 8.367188 25.445312 8.378906 25.457031 8.386719 25.464844 C 8.398438 25.476562 8.40625 25.484375 8.417969 25.492188 C 8.425781 25.503906 8.4375 25.515625 8.449219 25.523438 C 8.457031 25.535156 8.46875 25.542969 8.476562 25.550781 C 8.488281 25.5625 8.496094 25.574219 8.507812 25.582031 C 8.519531 25.59375 8.527344 25.601562 8.539062 25.609375 C 8.546875 25.621094 8.558594 25.632812 8.566406 25.640625 C 8.578125 25.652344 8.589844 25.660156 8.597656 25.667969 C 8.609375 25.679688 8.617188 25.691406 8.628906 25.699219 C 8.636719 25.710938 8.648438 25.71875 8.65625 25.726562 C 8.667969 25.738281 8.679688 25.75 8.6875 25.757812 C 8.699219 25.769531 8.707031 25.777344 8.71875 25.785156 C 8.726562 25.796875 8.738281 25.808594 8.75 25.816406 C 8.757812 25.828125 8.769531 25.835938 8.777344 25.84375 C 8.789062 25.855469 8.796875 25.863281 8.808594 25.875 C 8.816406 25.886719 8.828125 25.894531 8.839844 25.902344 C 8.847656 25.914062 8.859375 25.921875 8.867188 25.933594 C 8.878906 25.945312 8.886719 25.953125 8.898438 25.960938 C 8.910156 25.972656 8.917969 25.980469 8.929688 25.992188 C 8.9375 26.003906 8.949219 26.011719 8.957031 26.019531 C 9.539062 26.601562 10.328125 26.820312 11.054688 26.957031 C 11.722656 27.082031 12.238281 27.140625 12.667969 27.140625 C 13.707031 27.140625 14.484375 26.78125 14.980469 26.074219 C 15.132812 25.859375 15.242188 25.625 15.324219 25.382812 C 15.335938 25.394531 15.351562 25.410156 15.363281 25.421875 C 15.375 25.429688 15.382812 25.441406 15.394531 25.449219 C 15.402344 25.460938 15.414062 25.46875 15.425781 25.480469 C 15.433594 25.488281 15.445312 25.5 15.453125 25.507812 C 15.464844 25.519531 15.472656 25.527344 15.484375 25.539062 C 15.492188 25.546875 15.503906 25.558594 15.515625 25.566406 C 15.523438 25.578125 15.535156 25.585938 15.542969 25.597656 C 15.554688 25.605469 15.5625 25.617188 15.574219 25.625 C 15.585938 25.636719 15.59375 25.644531 15.605469 25.65625 C 15.613281 25.664062 15.625 25.675781 15.632812 25.683594 C 15.644531 25.695312 15.652344 25.703125 15.664062 25.714844 C 15.675781 25.722656 15.683594 25.734375 15.695312 25.742188 C 15.703125 25.753906 15.714844 25.761719 15.722656 25.773438 C 15.734375 25.78125 15.746094 25.792969 15.753906 25.800781 C 15.765625 25.8125 15.773438 25.820312 15.785156 25.832031 C 15.792969 25.839844 15.804688 25.851562 15.816406 25.859375 C 15.824219 25.871094 15.835938 25.878906 15.84375 25.890625 C 15.855469 25.898438 15.863281 25.910156 15.875 25.917969 C 15.886719 25.929688 15.894531 25.9375 15.90625 25.949219 C 15.914062 25.957031 15.925781 25.96875 15.933594 25.976562 C 15.945312 25.988281 15.953125 25.996094 15.964844 26.007812 C 15.976562 26.015625 15.984375 26.027344 15.996094 26.035156 C 16.003906 26.046875 16.015625 26.054688 16.023438 26.066406 C 16.035156 26.074219 16.046875 26.085938 16.054688 26.09375 C 16.066406 26.105469 16.074219 26.113281 16.085938 26.125 C 16.09375 26.132812 16.105469 26.144531 16.117188 26.152344 C 16.125 26.164062 16.136719 26.171875 16.144531 26.183594 C 16.15625 26.191406 16.164062 26.203125 16.175781 26.210938 C 16.183594 26.222656 16.195312 26.230469 16.207031 26.242188 C 16.214844 26.25 16.226562 26.261719 16.234375 26.269531 C 16.269531 26.304688 16.304688 26.339844 16.34375 26.371094 C 16.921875 26.871094 17.613281 26.972656 18.152344 27 C 18.296875 27.011719 18.421875 27.015625 18.542969 27.015625 C 20.117188 27.015625 20.707031 26.015625 20.980469 25.324219 C 21.082031 25.480469 21.207031 25.628906 21.351562 25.765625 C 21.363281 25.777344 21.371094 25.785156 21.382812 25.796875 C 21.390625 25.804688 21.402344 25.816406 21.410156 25.824219 C 21.421875 25.835938 21.433594 25.84375 21.441406 25.855469 C 21.453125 25.863281 21.460938 25.875 21.472656 25.882812 C 21.480469 25.894531 21.492188 25.902344 21.503906 25.914062 C 21.511719 25.921875 21.523438 25.933594 21.53125 25.941406 C 21.542969 25.953125 21.550781 25.960938 21.5625 25.972656 C 21.570312 25.980469 21.582031 25.992188 21.59375 26 C 21.601562 26.011719 21.613281 26.019531 21.621094 26.03125 C 21.632812 26.039062 21.640625 26.050781 21.652344 26.058594 C 21.664062 26.070312 21.671875 26.078125 21.683594 26.089844 C 21.691406 26.097656 21.703125 26.109375 21.710938 26.117188 C 21.722656 26.128906 21.734375 26.136719 21.742188 26.148438 C 21.753906 26.15625 21.761719 26.167969 21.773438 26.175781 C 21.78125 26.1875 21.792969 26.195312 21.804688 26.207031 C 21.8125 26.214844 21.824219 26.226562 21.832031 26.234375 C 21.84375 26.246094 21.851562 26.253906 21.863281 26.265625 C 21.871094 26.273438 21.882812 26.285156 21.894531 26.292969 C 21.902344 26.304688 21.914062 26.3125 21.921875 26.324219 C 21.933594 26.332031 21.941406 26.34375 21.953125 26.351562 C 21.964844 26.363281 21.972656 26.371094 21.984375 26.382812 C 21.992188 26.390625 22.003906 26.402344 22.011719 26.410156 C 22.023438 26.421875 22.03125 26.429688 22.042969 26.441406 C 22.054688 26.449219 22.0625 26.460938 22.074219 26.46875 C 22.082031 26.480469 22.09375 26.488281 22.101562 26.5 C 22.113281 26.507812 22.125 26.519531 22.132812 26.527344 C 22.144531 26.539062 22.152344 26.546875 22.164062 26.558594 C 22.171875 26.566406 22.183594 26.578125 22.195312 26.585938 C 22.203125 26.597656 22.214844 26.605469 22.222656 26.617188 C 22.300781 26.691406 22.382812 26.765625 22.476562 26.832031 C 23.28125 27.441406 24.328125 27.523438 25.71875 27.570312 L 25.726562 27.570312 C 25.808594 27.574219 25.886719 27.574219 25.964844 27.574219 C 26.640625 27.574219 27.621094 27.488281 28.316406 26.746094 C 29.054688 25.960938 29.074219 24.898438 28.984375 23.867188 Z M 27.992188 12.109375 "/></g><g clip-rule="nonzero" clip-path="url(#45f7fa0275)"><path style=" stroke:none;fill-rule:nonzero;fill:#ffffff;fill-opacity:1;" d="M 25.0625 26.167969 C 24.992188 26.167969 24.917969 26.167969 24.839844 26.164062 L 24.835938 26.164062 C 23.546875 26.121094 22.585938 26.050781 21.90625 25.535156 C 21.113281 24.941406 20.996094 23.992188 20.941406 22.992188 L 20.796875 20.496094 L 19.691406 23.925781 C 19.546875 24.359375 19.367188 24.808594 19.015625 25.132812 C 18.558594 25.5625 18.011719 25.609375 17.640625 25.609375 C 17.535156 25.609375 17.417969 25.605469 17.285156 25.597656 C 16.804688 25.570312 16.253906 25.492188 15.800781 25.097656 C 15.410156 24.757812 15.210938 24.304688 15.035156 23.726562 L 14.230469 21.035156 L 14.121094 23.011719 C 14.082031 23.679688 14 24.371094 13.628906 24.898438 C 13.046875 25.734375 12.082031 25.734375 11.765625 25.734375 C 11.371094 25.734375 10.890625 25.679688 10.253906 25.558594 C 9.484375 25.414062 8.628906 25.167969 8.164062 24.421875 C 7.964844 24.101562 7.855469 23.722656 7.832031 23.265625 C 7.8125 22.921875 7.84375 22.519531 7.921875 21.996094 L 9.601562 10.496094 C 9.714844 9.746094 9.882812 8.980469 10.351562 8.441406 C 10.933594 7.773438 11.753906 7.695312 12.320312 7.695312 C 12.480469 7.695312 12.652344 7.699219 12.847656 7.714844 L 13.726562 7.78125 C 15.039062 7.871094 15.59375 8.21875 15.964844 8.542969 C 16.527344 9.042969 16.835938 9.753906 17.125 10.664062 L 18.058594 13.582031 L 18.976562 11.054688 C 19.308594 10.167969 19.648438 9.480469 20.234375 9.007812 C 20.617188 8.703125 21.1875 8.382812 22.5 8.34375 L 23.472656 8.324219 C 23.558594 8.320312 23.644531 8.320312 23.722656 8.320312 C 24.175781 8.320312 24.53125 8.359375 24.839844 8.449219 C 25.246094 8.566406 25.582031 8.773438 25.839844 9.0625 C 26.320312 9.601562 26.472656 10.335938 26.550781 11.277344 L 27.542969 23.035156 C 27.625 23.945312 27.613281 24.878906 27.015625 25.511719 C 26.46875 26.09375 25.683594 26.167969 25.0625 26.167969 Z M 25.0625 26.167969 "/></g><path style=" stroke:none;fill-rule:nonzero;fill:#005fbd;fill-opacity:1;" d="M 25.0625 25.523438 C 25 25.523438 24.929688 25.523438 24.859375 25.523438 C 23.515625 25.472656 22.789062 25.390625 22.308594 25.027344 C 21.789062 24.636719 21.660156 23.996094 21.597656 22.953125 L 21.253906 16.925781 L 19.0625 23.722656 C 18.902344 24.210938 18.753906 24.484375 18.558594 24.667969 C 18.273438 24.933594 17.917969 24.96875 17.640625 24.96875 C 17.546875 24.96875 17.445312 24.964844 17.328125 24.953125 C 16.347656 24.902344 15.992188 24.601562 15.671875 23.546875 L 13.78125 17.230469 L 13.460938 22.976562 C 13.417969 23.765625 13.308594 24.21875 13.085938 24.539062 C 12.738281 25.035156 12.164062 25.089844 11.765625 25.089844 C 11.414062 25.089844 10.972656 25.039062 10.378906 24.925781 C 9.71875 24.804688 9.058594 24.617188 8.730469 24.085938 C 8.425781 23.601562 8.449219 22.9375 8.578125 22.089844 L 10.253906 10.59375 C 10.488281 9.066406 10.855469 8.339844 12.320312 8.339844 C 12.464844 8.339844 12.621094 8.34375 12.800781 8.359375 L 13.679688 8.421875 C 14.574219 8.484375 15.109375 8.660156 15.519531 9.023438 C 15.972656 9.425781 16.238281 10.046875 16.492188 10.855469 L 18.015625 15.621094 L 19.597656 11.277344 C 19.890625 10.488281 20.183594 9.886719 20.65625 9.507812 C 21.082031 9.164062 21.621094 9.015625 22.519531 8.988281 L 23.492188 8.96875 C 23.570312 8.964844 23.648438 8.964844 23.722656 8.964844 C 24.738281 8.964844 25.109375 9.226562 25.339844 9.484375 C 25.648438 9.832031 25.808594 10.367188 25.894531 11.328125 L 26.882812 23.089844 C 26.976562 24.136719 26.875 24.710938 26.53125 25.078125 C 26.332031 25.285156 25.988281 25.523438 25.0625 25.523438 Z M 25.0625 25.523438 "/><path style=" stroke:none;fill-rule:nonzero;fill:#0070de;fill-opacity:1;" d="M 24.761719 24.527344 C 24.703125 24.527344 24.644531 24.527344 24.582031 24.527344 C 23.453125 24.488281 22.78125 24.421875 22.46875 24.183594 C 22.214844 23.992188 22.105469 23.589844 22.050781 22.648438 L 21.613281 15.015625 L 20.730469 14.90625 L 18.046875 23.238281 C 17.96875 23.472656 17.863281 23.757812 17.738281 23.875 C 17.703125 23.910156 17.636719 23.96875 17.339844 23.96875 C 17.265625 23.96875 17.183594 23.96875 17.082031 23.960938 L 17.070312 23.957031 C 16.648438 23.9375 16.515625 23.871094 16.4375 23.804688 C 16.320312 23.703125 16.214844 23.484375 16.089844 23.074219 L 13.710938 15.113281 L 12.828125 15.210938 L 12.410156 22.671875 C 12.386719 23.09375 12.335938 23.609375 12.164062 23.859375 C 12.109375 23.9375 12 24.09375 11.464844 24.09375 C 11.160156 24.09375 10.765625 24.046875 10.222656 23.945312 C 9.558594 23.820312 9.210938 23.671875 9.070312 23.441406 C 8.914062 23.191406 8.898438 22.726562 9.019531 21.933594 L 10.695312 10.433594 C 10.808594 9.707031 10.941406 9.285156 11.128906 9.070312 C 11.246094 8.933594 11.4375 8.808594 12.019531 8.808594 C 12.144531 8.808594 12.285156 8.8125 12.445312 8.824219 L 13.320312 8.890625 C 14.035156 8.941406 14.4375 9.058594 14.710938 9.300781 C 14.992188 9.550781 15.214844 9.984375 15.476562 10.804688 L 17.667969 17.671875 L 20.003906 11.261719 C 20.300781 10.460938 20.542969 10.042969 20.832031 9.808594 C 21.117188 9.578125 21.523438 9.476562 22.238281 9.457031 L 23.207031 9.4375 C 23.285156 9.433594 23.355469 9.433594 23.417969 9.433594 C 24.132812 9.433594 24.347656 9.5625 24.472656 9.699219 C 24.660156 9.914062 24.777344 10.355469 24.84375 11.128906 L 25.832031 22.882812 C 25.902344 23.675781 25.851562 24.128906 25.675781 24.316406 C 25.539062 24.460938 25.25 24.527344 24.761719 24.527344 Z M 24.761719 24.527344 "/></g></svg>